<?xml version="1.0" standalone="no"?>
<!DOCTYPE svg PUBLIC "-//W3C//DTD SVG 20010904//EN"
 "http://www.w3.org/TR/2001/REC-SVG-20010904/DTD/svg10.dtd">
<svg version="1.0" xmlns="http://www.w3.org/2000/svg"
 width="1080.000000pt" height="1080.000000pt" viewBox="0 0 1080.000000 1080.000000"
 preserveAspectRatio="xMidYMid meet">
<metadata>
Created by potrace 1.14, written by Peter Selinger 2001-2017
</metadata>
<g transform="translate(0.000000,1080.000000) scale(0.100000,-0.100000)"
fill="#000000" stroke="none">
<path d="M4844 10372 c0 -159 -3 -199 -22 -264 -30 -108 -77 -217 -125 -290
l-42 -63 -6 135 c-5 106 -12 153 -33 217 -15 45 -30 84 -35 87 -4 3 -1 -27 6
-67 19 -97 11 -295 -16 -397 -34 -128 -90 -226 -185 -326 l-84 -89 -16 37 c-9
21 -16 50 -17 65 0 15 -4 37 -8 48 -6 16 -10 10 -15 -27 -6 -42 -3 -92 10
-140 5 -17 -57 -68 -83 -68 -22 0 -43 99 -44 209 l-1 106 -15 -45 c-33 -100
-27 -358 11 -468 l12 -35 31 54 c52 93 150 189 192 189 18 0 35 -44 40 -110
l6 -65 37 52 c34 48 36 55 26 83 -18 53 -4 138 36 217 48 96 166 251 264 346
47 45 85 91 91 110 49 156 60 419 23 570 -12 49 -25 95 -30 102 -4 8 -7 -71
-8 -173z"/>
<path d="M5155 9901 c-123 -32 -237 -72 -306 -107 -41 -20 -209 -186 -209
-205 0 -4 42 24 93 62 107 81 306 184 462 239 130 46 113 50 -40 11z"/>
<path d="M4462 9592 c-24 -26 -51 -56 -61 -67 -24 -27 -81 -129 -81 -146 0
-38 162 162 189 234 15 39 2 33 -47 -21z"/>
<path d="M5155 9633 c-11 -3 -35 -18 -53 -34 -63 -55 -182 -103 -197 -79 -4 6
1 20 11 31 65 72 -163 -70 -238 -148 -33 -34 -60 -93 -43 -93 4 0 20 9 36 21
47 33 188 96 269 119 105 30 292 38 380 16 223 -56 395 -224 456 -447 29 -102
24 -305 -10 -434 -26 -101 -33 -169 -17 -193 5 -9 24 20 59 90 56 113 94 220
112 314 12 60 12 61 -20 108 -28 41 -60 120 -60 148 0 19 40 6 63 -22 14 -16
29 -30 32 -30 10 0 -4 88 -27 165 -28 97 -71 175 -138 247 l-57 62 -91 -3
c-99 -3 -132 3 -132 23 0 14 33 30 82 42 16 3 26 10 23 14 -10 15 -170 68
-242 79 -73 11 -161 13 -198 4z"/>
<path d="M5126 9451 c-25 -5 -30 -13 -50 -81 -27 -90 -55 -147 -109 -219 -29
-39 -35 -52 -21 -47 103 40 228 43 308 7 132 -58 200 -221 162 -385 -45 -192
-197 -370 -434 -509 -146 -85 -264 -246 -331 -449 -33 -99 -29 -103 59 -53 41
24 106 56 144 71 60 25 71 33 84 65 11 29 22 39 55 50 66 22 257 153 352 241
17 15 33 28 37 28 6 0 -98 -102 -182 -179 l-35 -32 50 7 c28 3 57 8 67 10 19
6 164 172 232 267 26 37 50 67 52 67 6 0 4 -4 -73 -124 -36 -54 -80 -119 -99
-144 -19 -25 -34 -49 -34 -53 0 -5 16 -9 35 -9 30 0 39 7 73 53 62 82 157 252
203 361 141 338 127 634 -40 843 -49 63 -162 145 -239 173 -89 34 -208 52
-266 41z"/>
<path d="M4995 9435 c-138 -30 -325 -121 -415 -204 l-45 -40 35 5 c158 25 218
43 314 92 88 46 221 166 179 161 -5 0 -35 -6 -68 -14z"/>
<path d="M5020 9355 c-81 -84 -225 -145 -403 -170 -100 -15 -103 -16 -141 -58
-21 -23 -51 -67 -65 -97 -23 -48 -26 -68 -26 -155 0 -87 4 -112 33 -192 36
-103 39 -129 16 -162 -15 -21 -21 -23 -80 -16 -68 7 -78 0 -44 -30 11 -10 20
-22 20 -27 0 -5 -18 -31 -40 -59 -22 -28 -40 -54 -40 -59 0 -4 21 -2 48 6 26
8 88 17 139 21 100 6 101 8 104 78 1 29 1 29 22 -15 15 -33 21 -66 21 -121 1
-68 -2 -81 -26 -115 -15 -21 -26 -40 -23 -42 9 -10 68 12 96 35 62 53 74 110
34 169 -50 74 -57 172 -16 251 20 40 73 94 130 133 l34 23 -6 69 c-7 79 -38
156 -88 213 l-34 39 32 -22 c18 -13 35 -27 38 -32 11 -17 25 -11 25 10 0 48
63 130 100 130 16 0 12 -32 -10 -68 -30 -49 1 -28 56 39 47 57 139 229 133
248 -3 7 -20 -4 -39 -24z m-420 -290 c25 -14 25 -14 -10 -8 l-35 6 50 -34 c46
-32 115 -117 115 -143 0 -6 -8 3 -18 19 -21 33 -52 63 -52 48 0 -5 6 -15 13
-23 6 -8 -5 0 -26 18 -72 61 -118 53 -169 -28 -17 -27 -32 -50 -33 -50 -1 0 2
25 7 56 9 57 28 105 56 137 18 21 68 22 102 2z m-26 -157 c27 -25 59 -118 46
-138 -5 -8 -9 -9 -14 -1 -21 33 -93 -5 -116 -60 -14 -32 -14 -32 -23 -8 -9 26
-1 117 15 158 10 28 46 71 59 71 4 0 19 -10 33 -22z"/>
<path d="M4306 9188 c-24 -22 -25 -26 -16 -88 9 -70 27 -128 50 -154 13 -16
14 -16 23 0 6 10 12 61 15 114 6 140 -15 178 -72 128z"/>
<path d="M6765 9036 c-225 -47 -394 -102 -515 -167 -90 -49 -88 -46 -100 -150
-30 -269 -140 -508 -311 -679 -109 -110 -299 -228 -393 -245 -30 -6 -39 -3
-59 19 l-25 26 -40 -62 c-88 -136 -178 -380 -170 -462 3 -27 7 -23 52 49 60
94 211 254 312 331 147 110 337 207 462 235 45 11 58 10 87 -4 36 -17 86 -91
107 -159 6 -21 14 -38 18 -38 10 0 49 118 70 215 17 80 33 211 44 360 2 28 2
-35 1 -140 -3 -147 -8 -209 -23 -276 -22 -91 -73 -233 -96 -264 -13 -17 -15
-14 -26 40 -6 33 -17 76 -23 95 -11 31 -12 21 -18 -100 -4 -74 -16 -180 -28
-235 -11 -54 -18 -101 -16 -103 2 -2 14 16 26 40 37 72 126 212 191 300 115
155 228 257 303 272 72 15 246 -58 383 -161 45 -34 82 -57 82 -51 0 19 -118
256 -171 345 -99 165 -231 353 -303 432 -20 22 -24 29 -9 20 29 -20 162 -176
231 -273 156 -219 299 -496 327 -636 l7 -35 -69 66 c-91 87 -116 105 -82 59
101 -136 174 -261 234 -400 21 -47 41 -89 45 -93 4 -4 1 32 -6 80 -61 403 -66
712 -14 813 25 49 61 61 182 61 151 -1 350 -40 523 -105 l70 -26 -45 41 c-148
135 -639 406 -932 515 -126 47 -89 47 45 0 175 -62 281 -107 452 -194 256
-131 535 -332 616 -444 l19 -26 -57 27 c-59 29 -246 101 -260 101 -4 0 51 -32
122 -71 282 -153 553 -336 704 -474 108 -98 -65 119 -232 292 -479 495 -1097
851 -1715 988 l-119 27 -47 -32 c-97 -66 -206 -89 -239 -52 -24 27 -21 69 8
97 29 30 59 31 103 5 l34 -21 31 24 c52 39 222 136 320 183 106 50 94 53 -68
20z m190 -414 c-3 -3 -11 0 -18 7 -9 10 -8 11 6 5 10 -3 15 -9 12 -12z"/>
<path d="M4341 8288 c1 -54 14 -99 22 -78 3 8 8 29 11 45 3 17 8 40 12 53 5
19 3 22 -20 22 -24 0 -26 -3 -25 -42z"/>
<path d="M4707 8263 c-9 -47 35 -93 90 -93 11 0 10 5 -7 18 -22 18 -22 18 18
14 41 -4 106 22 132 52 12 15 6 16 -56 10 -62 -6 -106 0 -155 20 -12 5 -18 0
-22 -21z"/>
<path d="M3885 7965 c-85 -29 -226 -33 -290 -9 -58 23 -74 19 -116 -23 -54
-55 -57 -77 -19 -113 48 -45 77 -49 105 -14 21 26 29 29 78 28 62 -2 139 -37
145 -67 2 -9 -6 -30 -18 -47 -12 -16 -19 -34 -15 -39 3 -5 30 -15 60 -22 67
-15 102 -3 110 38 25 121 37 131 124 104 77 -24 140 -61 179 -106 17 -19 34
-35 36 -35 3 0 20 16 39 35 44 45 53 45 22 -1 -23 -33 -31 -54 -22 -54 2 0 17
7 34 15 42 21 132 37 168 29 17 -3 41 -13 53 -21 13 -8 25 -13 28 -11 2 2 15
44 29 92 14 48 34 105 45 126 11 22 20 41 20 44 0 3 -55 2 -122 -1 -141 -6
-264 6 -423 44 -149 35 -169 36 -250 8z"/>
<path d="M5239 7940 c-61 -10 -185 -45 -231 -64 -32 -14 -44 -29 -79 -98 -51
-103 -94 -162 -165 -227 -60 -55 -165 -121 -227 -142 -36 -13 -38 -16 -33 -44
9 -42 50 -124 83 -164 l29 -33 25 38 c111 167 312 327 500 399 65 25 71 30 96
79 25 51 112 186 153 239 l22 27 -64 -1 c-34 -1 -84 -5 -109 -9z"/>
<path d="M6550 7874 c-117 -66 -291 -285 -464 -584 -36 -63 -66 -111 -66 -107
0 4 11 63 25 130 31 158 47 317 43 439 l-3 97 -62 -52 c-144 -122 -280 -176
-458 -183 l-110 -4 -58 -58 c-81 -79 -157 -173 -211 -262 -47 -75 -57 -124
-40 -187 l6 -22 52 26 c28 14 89 50 135 80 46 30 84 53 85 51 23 -40 100 -127
136 -153 71 -52 116 -67 193 -67 231 2 490 163 669 416 56 79 129 219 148 283
15 51 25 48 33 -8 16 -123 119 -241 298 -343 150 -86 256 -155 324 -214 33
-28 61 -49 63 -47 7 7 -155 329 -219 435 -139 229 -194 284 -342 338 -76 29
-122 28 -177 -4z"/>
<path d="M3597 7813 c-15 -14 -5 -51 22 -83 26 -31 31 -34 56 -25 15 6 37 23
49 38 l21 29 -28 24 c-20 17 -40 24 -71 24 -23 0 -46 -3 -49 -7z"/>
<path d="M4795 7731 c-55 -27 -119 -62 -142 -79 -40 -30 -41 -32 -48 -107 -4
-42 -5 -78 -2 -81 9 -10 119 72 174 128 54 56 127 163 121 178 -2 5 -48 -12
-103 -39z"/>
<path d="M6547 7588 l-27 -61 33 -43 c17 -24 35 -44 39 -44 7 0 16 38 20 85 2
30 -22 125 -32 125 -3 0 -18 -28 -33 -62z"/>
<path d="M3811 7584 c-82 -22 -82 -29 1 -34 86 -7 118 -25 118 -70 0 -95 -189
-147 -370 -101 -46 11 -85 19 -87 17 -7 -7 59 -52 117 -81 84 -43 166 -65 264
-72 l89 -6 -16 24 c-9 13 -17 31 -17 39 0 20 37 55 68 65 15 4 31 24 46 58 22
51 22 53 4 82 -10 17 -18 42 -18 57 0 17 -6 28 -17 32 -35 9 -129 4 -182 -10z"/>
<path d="M5094 7561 c-45 -21 -110 -58 -145 -82 -81 -54 -216 -184 -268 -258
l-40 -57 35 -105 c19 -57 58 -152 86 -211 49 -103 52 -108 87 -113 92 -15 137
-27 205 -54 152 -58 294 -179 355 -302 46 -92 40 -143 -20 -174 l-30 -16 82
-50 c99 -59 176 -116 247 -182 33 -32 52 -44 52 -34 0 9 -31 78 -69 154 -69
137 -150 263 -322 503 -109 153 -194 317 -215 418 -31 155 -10 409 46 552 14
36 16 50 7 50 -6 0 -49 -18 -93 -39z"/>
<path d="M7260 7535 c0 -30 36 -303 50 -382 17 -93 23 -108 63 -160 54 -71
106 -160 146 -250 38 -85 39 -61 5 99 -30 144 -79 300 -140 450 -61 151 -124
274 -124 243z"/>
<path d="M6628 7421 c-9 -53 -28 -133 -42 -177 l-26 -82 89 -91 c50 -50 92
-87 95 -83 3 5 8 103 12 218 l7 209 -60 51 -59 52 -16 -97z"/>
<path d="M3620 7490 c7 -13 30 -42 52 -66 42 -45 74 -54 123 -34 17 7 13 11
-28 29 -26 11 -67 34 -90 49 -69 47 -71 48 -57 22z"/>
<path d="M6471 7451 l-32 -49 52 -81 c35 -55 55 -78 60 -69 4 7 15 43 24 80
l17 68 -31 38 c-53 68 -55 68 -90 13z"/>
<path d="M4057 7448 c-3 -7 -12 -30 -21 -50 l-16 -37 59 -35 c32 -20 64 -36
70 -36 7 0 11 21 11 53 0 52 -1 54 -45 85 -52 37 -51 36 -58 20z"/>
<path d="M6785 7387 c-2 -7 -6 -111 -8 -232 l-5 -220 63 -85 c34 -47 82 -114
106 -150 33 -49 44 -60 47 -46 10 47 -32 552 -53 642 -6 26 -144 110 -150 91z"/>
<path d="M4180 7331 l0 -62 63 -28 c34 -16 73 -32 86 -36 22 -7 23 -5 17 16
-4 13 -14 52 -23 85 -15 61 -15 62 -56 68 -23 3 -52 9 -64 12 -22 6 -23 4 -23
-55z"/>
<path d="M4383 7373 c-39 -4 -43 -7 -43 -30 0 -55 32 -144 55 -153 28 -11 175
-33 181 -27 3 2 -11 28 -30 56 -20 29 -43 76 -52 106 -19 60 -11 57 -111 48z"/>
<path d="M6382 7333 l-41 -50 49 -114 c28 -63 50 -120 50 -126 0 -7 5 -13 10
-13 11 0 80 144 80 167 0 14 -63 127 -92 167 -13 17 -17 15 -56 -31z"/>
<path d="M6964 7273 c13 -44 37 -287 48 -483 l11 -215 63 -110 c34 -60 93
-172 130 -249 38 -76 70 -133 72 -127 5 15 -25 378 -43 518 -17 132 -66 401
-93 508 l-17 70 -78 53 c-84 56 -102 62 -93 35z"/>
<path d="M6266 7213 l-48 -46 31 -96 c17 -53 38 -129 48 -168 9 -40 19 -73 22
-73 6 0 74 91 100 135 14 23 14 30 -3 78 -19 54 -92 217 -98 217 -2 0 -25 -21
-52 -47z"/>
<path d="M5290 7130 c-63 -38 -121 -73 -128 -77 -10 -6 -10 -19 3 -66 8 -31
21 -73 30 -93 l15 -36 57 46 c32 25 93 81 137 125 l79 79 -39 46 c-21 25 -38
46 -39 45 0 0 -52 -31 -115 -69z"/>
<path d="M6132 7111 c-61 -41 -58 -16 -27 -216 8 -55 15 -130 15 -167 0 -37 4
-70 10 -73 5 -3 44 27 87 68 l77 74 -13 59 c-17 80 -83 294 -90 293 -3 -1 -30
-18 -59 -38z"/>
<path d="M7174 7132 c16 -50 59 -253 81 -387 32 -191 53 -398 61 -595 5 -146
8 -160 41 -245 146 -375 252 -773 298 -1120 30 -223 35 -194 30 170 -6 472
-30 768 -95 1164 -57 347 -156 739 -206 815 -30 46 -193 216 -206 216 -5 0 -7
-8 -4 -18z"/>
<path d="M5448 7036 c-26 -30 -87 -87 -136 -128 l-89 -75 15 -29 c24 -48 94
-154 102 -154 16 0 185 241 229 328 l20 39 -44 36 c-24 21 -45 37 -47 37 -2 0
-24 -24 -50 -54z"/>
<path d="M5984 7037 l-50 -21 -12 -156 c-7 -85 -21 -200 -32 -254 -11 -55 -18
-101 -16 -104 5 -4 68 27 155 77 l64 36 -6 135 c-3 74 -13 173 -21 220 -9 47
-16 86 -16 88 0 4 -15 -1 -66 -21z"/>
<path d="M5602 6979 c-42 -78 -127 -208 -182 -280 -36 -47 -58 -85 -54 -92 24
-42 121 -166 130 -167 12 0 97 150 143 252 42 95 91 241 91 272 0 22 -4 26
-29 26 -16 0 -41 4 -56 10 -23 9 -28 7 -43 -21z"/>
<path d="M5807 6993 c-21 -2 -40 -10 -42 -16 -58 -205 -113 -341 -191 -478
-25 -44 -43 -84 -39 -87 9 -9 162 24 237 51 l63 22 12 55 c18 82 41 252 49
363 l6 97 -28 -2 c-16 -1 -46 -3 -67 -5z"/>
<path d="M4733 6710 c-56 -12 -99 -35 -119 -65 -49 -75 19 -224 180 -394 l41
-43 -35 7 c-66 14 -265 86 -359 131 -51 24 -95 44 -97 44 -1 0 17 -38 41 -86
24 -47 52 -116 61 -154 10 -38 21 -67 24 -64 3 3 10 22 15 42 14 50 35 54 35
6 0 -37 0 -37 21 -18 17 16 36 19 108 19 104 -1 175 -27 302 -111 45 -30 83
-53 84 -51 1 1 -8 54 -21 117 -27 133 -30 178 -10 186 8 3 59 -9 113 -26 55
-18 129 -35 168 -37 61 -5 73 -2 98 17 82 65 -38 267 -227 379 -123 73 -323
121 -423 101z"/>
<path d="M4205 6338 c-44 -22 -138 -60 -210 -84 -71 -24 -122 -43 -112 -44 24
0 157 30 182 42 l20 9 -20 -16 c-11 -9 -46 -30 -77 -46 -32 -16 -58 -31 -58
-33 0 -2 35 -13 78 -25 102 -27 253 -44 318 -36 l53 6 -20 32 c-24 41 -24 65
2 93 14 15 19 29 15 42 -10 31 -65 102 -79 102 -6 -1 -48 -19 -92 -42z"/>
<path d="M5020 6210 c0 -35 27 -189 45 -263 7 -27 5 -26 -76 29 -96 66 -204
119 -269 133 -45 10 -45 10 -87 -36 -57 -61 -95 -128 -95 -167 0 -72 75 -184
275 -410 l27 -31 -82 -9 c-113 -12 -277 5 -347 35 l-54 23 -38 -42 c-47 -50
-51 -45 -8 9 17 22 48 48 68 58 l36 19 -29 8 c-42 10 -251 -3 -324 -21 -34 -8
-99 -29 -145 -47 l-82 -33 130 -6 c182 -9 283 -51 345 -143 24 -35 27 -37 65
-32 198 29 273 36 397 37 148 1 278 -8 278 -20 0 -13 -64 -69 -120 -105 -32
-21 -47 -36 -36 -36 27 0 144 49 216 90 65 38 160 115 160 130 0 4 -19 1 -41
-7 -23 -7 -44 -11 -47 -8 -3 3 0 5 6 5 7 0 12 5 12 10 0 6 -7 10 -15 10 -27 0
-113 49 -148 84 -37 37 -53 84 -63 191 -7 80 -22 122 -53 149 -25 23 -13 36
34 36 50 0 190 38 260 69 l65 30 -44 103 c-69 164 -60 152 -135 176 -37 12
-70 22 -74 22 -4 0 -7 -18 -7 -40z m-202 -432 c18 -18 15 -51 -4 -44 -9 3 -18
6 -20 6 -2 0 -4 11 -4 25 0 27 9 32 28 13z m90 -46 c3 -16 -1 -20 -12 -16 -19
7 -22 48 -3 42 6 -3 13 -14 15 -26z m12 -84 c0 -17 -3 -18 -15 -8 -8 7 -15 19
-15 26 0 8 6 11 15 8 8 -4 15 -15 15 -26z"/>
<path d="M5200 6188 c0 -5 11 -30 23 -56 13 -26 46 -102 72 -169 l48 -123 34
60 c18 33 33 66 33 73 0 6 -16 54 -36 105 -28 72 -40 93 -57 96 -12 2 -43 8
-69 14 -28 5 -48 5 -48 0z"/>
<path d="M5392 6098 c11 -29 47 -129 79 -223 316 -932 234 -1749 -241 -2410
-43 -60 -95 -163 -205 -405 -247 -545 -340 -796 -395 -1070 -31 -154 -53 -395
-43 -470 6 -42 7 -38 25 65 75 450 219 809 588 1470 400 717 530 1048 592
1515 19 141 16 516 -6 675 -33 252 -142 709 -179 753 -27 34 -207 152 -230
152 -4 0 3 -24 15 -52z"/>
<path d="M5387 5876 c-15 -30 -27 -63 -27 -73 0 -10 16 -67 35 -126 19 -59 37
-123 41 -142 3 -19 9 -35 13 -34 12 1 71 99 71 117 0 11 -4 32 -9 48 -6 16
-26 82 -46 147 -20 64 -39 117 -44 117 -4 0 -20 -24 -34 -54z"/>
<path d="M5701 5823 c35 -118 83 -333 103 -463 72 -453 41 -876 -94 -1291 -26
-82 -46 -149 -44 -149 7 0 102 197 137 285 20 50 52 144 72 210 l37 120 -17
90 c-18 95 -20 161 -7 209 12 43 27 42 45 -1 18 -46 24 -35 30 61 4 62 2 74
-19 105 -47 68 -77 204 -55 240 12 19 34 2 51 -39 17 -42 31 -37 26 8 -3 20
-8 63 -11 94 -4 45 -11 64 -36 90 -45 48 -80 123 -86 184 -7 64 5 69 47 24 15
-16 30 -30 33 -30 2 0 -7 45 -21 100 -24 99 -25 101 -65 122 -23 11 -67 45
-98 75 l-57 54 29 -98z"/>
<path d="M3885 5720 c3 -5 14 -10 23 -10 30 0 138 -57 179 -94 l39 -35 117 3
c75 1 121 6 129 14 7 7 18 12 25 12 7 0 13 4 13 9 0 12 -82 46 -157 65 -141
37 -383 60 -368 36z"/>
<path d="M5489 5519 l-32 -51 27 -166 c15 -92 29 -168 30 -170 2 -1 22 21 46
49 39 47 42 53 36 92 -14 93 -60 297 -67 297 -4 0 -22 -23 -40 -51z"/>
<path d="M5551 5139 c-22 -28 -39 -55 -36 -59 2 -4 6 -78 9 -166 2 -87 6 -161
8 -164 2 -2 25 11 51 30 l48 35 -5 145 c-6 159 -14 230 -26 230 -5 0 -27 -23
-49 -51z"/>
<path d="M5600 4769 c-80 -65 -77 -60 -84 -160 -4 -52 -13 -132 -20 -179 -7
-47 -12 -86 -11 -88 1 -1 27 12 57 30 l56 33 11 75 c12 78 27 310 20 310 -2
-1 -15 -10 -29 -21z"/>
<path d="M5526 4338 l-49 -33 -37 -150 c-20 -82 -40 -160 -44 -172 l-7 -22 51
22 50 21 31 95 c27 86 69 244 69 264 0 13 -15 7 -64 -25z"/>
<path d="M5416 3947 c-36 -21 -41 -30 -86 -157 -26 -74 -62 -170 -79 -214 -18
-43 -30 -80 -28 -82 12 -12 247 428 247 464 0 17 -9 15 -54 -11z"/>
<path d="M5072 2713 c-239 -495 -355 -870 -402 -1310 l-12 -111 49 -104 c107
-222 299 -491 501 -700 108 -111 211 -203 176 -158 -214 281 -357 526 -459
784 -41 104 -115 351 -115 380 0 6 23 -31 50 -83 28 -52 76 -133 107 -180 60
-90 202 -265 209 -258 2 2 -18 51 -45 108 -201 427 -241 869 -121 1338 30 121
76 260 129 395 17 44 29 81 27 83 -1 2 -44 -81 -94 -184z"/>
</g>
</svg>
